# xmcd
#
# Track frame offsets:
#	150
#	12045
#	23937
#	35525
#	47290
#	59992
#	70882
#	84960
#	96727
#	109577
#	124582
#	137477
#	149917
#	158340
#	170820
#	181277
#	192795
#	205967
#	216040
#	226402
#	237834
#	251134
#	261144
#	272537
#	282629
#
# Disc length: 3907 seconds
#
# Revision: 0
# Processed by: cddbd v1.5.2PL0 Copyright (c) Steve Scherf et al.
# Submitted via: audiograbber 1.83.01
#
DISCID=710f4119
DTITLE=Various Artist - After Hours The Collection CD3
DYEAR=1900
DGENRE=Northern Soul
TTITLE0=Carl Hall - Mean It Baby
TTITLE1=The Pointer Sisters - Send Him Back
TTITLE2=The Drifters - You Got To Pay Your Dues
TTITLE3=Linda Jones - A Last Minute Miracle
TTITLE4=Tony and Tyrone - Please Operator
TTITLE5=Darlene Love - Too Late To Say You're Sorry
TTITLE6=Cajun Hart - Got To Find A Way
TTITLE7=Delilah Keenebruew - Bright Lights
TTITLE8=Jimmy Hughes - Slippin' Around With You
TTITLE9=Sister Sledge - Love Don't Go Through No Changes On Me
TTITLE10=Cliff Nobles - My Love Is Getting Stronger
TTITLE11=Plus 4 - Happiest Girl In The World
TTITLE12=Archie Bell and The Drells - A Thousand Wonders
TTITLE13=Mary Wells - Can't You See (You're Losing Me)
TTITLE14=Soul Brothers Six - I'll Be Loving You
TTITLE15=The Three Degrees - Contact
TTITLE16=Life - Tell Me Why
TTITLE17=The Teen Turbans - We Need To Be Loved
TTITLE18=The Innocent Bystanders - Frantic Escape
TTITLE19=Roy Redmond - Ain't That Terrible
TTITLE20=The Voice Box - I Want It Back (Your Love)
TTITLE21=The Big Guys - Hang My Head And Cry
TTITLE22=Willie Tee - I Want Somebody (To Show Me The Way Back Home )
TTITLE23=Al Perkins - Nothing Is Impossible
TTITLE24=Barbara Lynn - You're Losing Me
EXTD=
EXTT0=
EXTT1=
EXTT2=
EXTT3=
EXTT4=
EXTT5=
EXTT6=
EXTT7=
EXTT8=
EXTT9=
EXTT10=
EXTT11=
EXTT12=
EXTT13=
EXTT14=
EXTT15=
EXTT16=
EXTT17=
EXTT18=
EXTT19=
EXTT20=
EXTT21=
EXTT22=
EXTT23=
EXTT24=
PLAYORDER=
